<?xml version="1.0" encoding="UTF-8" standalone="no"?>
<svg
   xmlns:dc="http://purl.org/dc/elements/1.1/"
   xmlns:cc="http://creativecommons.org/ns#"
   xmlns:rdf="http://www.w3.org/1999/02/22-rdf-syntax-ns#"
   xmlns:svg="http://www.w3.org/2000/svg"
   xmlns="http://www.w3.org/2000/svg"
   xmlns:xlink="http://www.w3.org/1999/xlink"
   xmlns:sodipodi="http://sodipodi.sourceforge.net/DTD/sodipodi-0.dtd"
   xmlns:inkscape="http://www.inkscape.org/namespaces/inkscape"
   width="708"
   height="223"
   viewBox="0 0 708 223"
   id="svg2"
   version="1.1"
   inkscape:version="0.91 r13725"
   sodipodi:docname="nav_logo.svg">
  <metadata
     id="metadata24">
    <rdf:RDF>
      <cc:Work
         rdf:about="">
        <dc:format>image/svg+xml</dc:format>
        <dc:type
           rdf:resource="http://purl.org/dc/dcmitype/StillImage" />
      </cc:Work>
    </rdf:RDF>
  </metadata>
  <defs
     id="defs22">
    <radialGradient
       inkscape:collect="always"
       xlink:href="#linearGradient37215"
       id="radialGradient37546"
       gradientUnits="userSpaceOnUse"
       gradientTransform="matrix(0.60052264,0,0,0.60052264,9.9432699,-138.07907)"
       cx="19.876369"
       cy="-320.69141"
       fx="19.876369"
       fy="-320.69141"
       r="2.3268621" />
    <linearGradient
       inkscape:collect="always"
       id="linearGradient37215">
      <stop
         style="stop-color:#ddceea;stop-opacity:1"
         offset="0"
         id="stop37211" />
      <stop
         style="stop-color:#9467bd;stop-opacity:1"
         offset="1"
         id="stop37213" />
    </linearGradient>
    <radialGradient
       inkscape:collect="always"
       xlink:href="#linearGradient37249"
       id="radialGradient37548"
       gradientUnits="userSpaceOnUse"
       gradientTransform="matrix(1.2663182,0,0,1.2663182,-11.446797,77.262737)"
       cx="19.876369"
       cy="-320.69141"
       fx="19.876369"
       fy="-320.69141"
       r="2.3268621" />
    <linearGradient
       id="linearGradient37249"
       inkscape:collect="always">
      <stop
         id="stop37245"
         offset="0"
         style="stop-color:#f4c4c4;stop-opacity:1" />
      <stop
         id="stop37247"
         offset="1"
         style="stop-color:#d62728;stop-opacity:1" />
    </linearGradient>
    <radialGradient
       inkscape:collect="always"
       xlink:href="#linearGradient37215"
       id="radialGradient37243"
       gradientUnits="userSpaceOnUse"
       gradientTransform="matrix(0.80026133,0,0,0.80026133,0.39241205,-54.057448)"
       cx="19.876369"
       cy="-320.69141"
       fx="19.876369"
       fy="-320.69141"
       r="2.3268621" />
    <radialGradient
       inkscape:collect="always"
       xlink:href="#linearGradient37249"
       id="radialGradient37253"
       gradientUnits="userSpaceOnUse"
       gradientTransform="matrix(0.83991602,0,0,0.83991602,12.898523,-49.906023)"
       cx="19.876369"
       cy="-320.69141"
       fx="19.876369"
       fy="-320.69141"
       r="2.3268621" />
  </defs>
  <sodipodi:namedview
     pagecolor="#ffffff"
     bordercolor="#666666"
     borderopacity="1"
     objecttolerance="10"
     gridtolerance="10"
     guidetolerance="10"
     inkscape:pageopacity="0"
     inkscape:pageshadow="2"
     inkscape:window-width="1920"
     inkscape:window-height="1176"
     id="namedview20"
     showgrid="false"
     inkscape:zoom="0.84180791"
     inkscape:cx="613.11008"
     inkscape:cy="-111.87881"
     inkscape:window-x="0"
     inkscape:window-y="24"
     inkscape:window-maximized="1"
     inkscape:current-layer="svg2" />
  <title
     id="title4">Imported Layers</title>
  <text
     sodipodi:linespacing="125%"
     id="text3398"
     y="157.07047"
     x="225.2231"
     style="font-style:normal;font-variant:normal;font-weight:normal;font-stretch:normal;font-size:65px;line-height:125%;font-family:'DejaVu Sans';-inkscape-font-specification:'DejaVu Sans, Normal';text-align:center;letter-spacing:0px;word-spacing:0px;writing-mode:lr-tb;text-anchor:middle;fill:#9467bd;fill-opacity:1;fill-rule:evenodd;stroke:none;stroke-width:1px;stroke-linecap:butt;stroke-linejoin:miter;stroke-opacity:1"
     xml:space="preserve"><tspan
       style="font-size:60px;fill:#9467bd;fill-opacity:1"
       y="157.07047"
       x="225.2231"
       id="tspan3400"
       sodipodi:role="line">viewer</tspan></text>
  <text
     xml:space="preserve"
     style="font-style:normal;font-variant:normal;font-weight:normal;font-stretch:normal;font-size:113.70738983px;line-height:125%;font-family:'DejaVu Sans';-inkscape-font-specification:'DejaVu Sans, Normal';text-align:center;letter-spacing:0px;word-spacing:0px;writing-mode:lr-tb;text-anchor:middle;fill:#d62728;fill-opacity:1;fill-rule:evenodd;stroke:none;stroke-width:1px;stroke-linecap:butt;stroke-linejoin:miter;stroke-opacity:1"
     x="400.3746"
     y="89.06897"
     id="text3402"
     sodipodi:linespacing="125%"><tspan
       sodipodi:role="line"
       id="tspan3404"
       x="400.3746"
       y="89.06897"
       style="font-size:104.96067047px;fill:#d62728;fill-opacity:1">neuromine</tspan></text>
  <g
     style="stroke-linecap:butt;stroke-linejoin:round"
     transform="matrix(5.4801174,0,0,5.4767843,-62.651344,1846.8848)"
     id="g37544">
    <path
       style="fill:none;fill-rule:evenodd;stroke:#b3b3b3;stroke-width:0.17112501px;stroke-linecap:butt;stroke-linejoin:miter;stroke-opacity:1"
       d="m 16.915321,-310.40923 5.406455,-19.80071"
       id="path34897"
       inkscape:connector-curvature="0" />
    <path
       style="fill:#9b9b9b;fill-opacity:0.64179107;fill-rule:evenodd;stroke:#000000;stroke-width:0.17112501px;stroke-linecap:butt;stroke-linejoin:miter;stroke-opacity:1"
       d="m 14.504799,-327.93717 7.920285,-2.27277 8.058029,11.67381"
       id="path34895"
       inkscape:connector-curvature="0"
       sodipodi:nodetypes="ccc" />
    <path
       sodipodi:nodetypes="cccc"
       style="fill:#e6e6e6;fill-opacity:0.69651741;fill-rule:evenodd;stroke:#000000;stroke-width:0.17112501px;stroke-linecap:butt;stroke-linejoin:miter;stroke-opacity:1"
       d="m 16.880885,-310.13374 -2.066162,-17.59681 15.66839,9.09111 z"
       id="path34893"
       inkscape:connector-curvature="0" />
    <circle
       style="opacity:1;fill:url(#radialGradient37546);fill-opacity:1;stroke:#b3b3b3;stroke-width:0.17139448;stroke-linecap:square;stroke-linejoin:round;stroke-miterlimit:4;stroke-dasharray:none;stroke-dashoffset:0;stroke-opacity:1"
       id="circle34885"
       cx="22.405897"
       cy="-330.22284"
       r="1.3177642" />
    <circle
       r="2.7787609"
       cy="-327.90961"
       cx="14.833064"
       id="circle37233"
       style="opacity:1;fill:url(#radialGradient37548);fill-opacity:1;stroke:#b3b3b3;stroke-width:0.17139448;stroke-linecap:square;stroke-linejoin:round;stroke-miterlimit:4;stroke-dasharray:none;stroke-dashoffset:0;stroke-opacity:1" />
    <circle
       r="1.7560631"
       cy="-310.1098"
       cx="17.00021"
       id="circle37241"
       style="opacity:1;fill:url(#radialGradient37243);fill-opacity:1;stroke:#b3b3b3;stroke-width:0.17139448;stroke-linecap:square;stroke-linejoin:round;stroke-miterlimit:4;stroke-dasharray:none;stroke-dashoffset:0;stroke-opacity:1" />
    <circle
       style="opacity:1;fill:url(#radialGradient37253);fill-opacity:1;stroke:#b3b3b3;stroke-width:0.17139448;stroke-linecap:square;stroke-linejoin:round;stroke-miterlimit:4;stroke-dasharray:none;stroke-dashoffset:0;stroke-opacity:1"
       id="circle37251"
       cx="30.329271"
       cy="-318.64633"
       r="1.84308" />
  </g>
  <g
     transform="matrix(0.35462344,0,0,0.35462344,457.10356,144.06082)"
     style="fill:none;fill-rule:evenodd"
     id="g6">
    <path
       style="fill:#636462"
       inkscape:connector-curvature="0"
       d="m 95.56,32.732 c 0.17,4.014 -2.912,7.406 -6.885,7.578 -3.97,0.172 -7.328,-2.942 -7.498,-6.955 -0.17,-4.014 2.91,-7.407 6.882,-7.58 3.97,-0.17 7.33,2.944 7.5,6.957"
       id="path8-3" />
    <path
       style="fill:#e46e2e"
       inkscape:connector-curvature="0"
       d="m 51.482,130.1 c -22.015,0 -41.187,-7.997 -51.168,-19.81 7.553,21.178 27.61,36.32 51.168,36.32 23.56,0 43.616,-15.142 51.17,-36.32 -9.982,11.813 -29.154,19.81 -51.17,19.81 m 0,-76.888 c 22.016,0 41.188,7.995 51.17,19.81 C 95.097,51.84 75.04,36.7 51.48,36.7 27.924,36.7 7.867,51.84 0.314,73.02 10.294,61.205 29.467,53.21 51.482,53.21"
       id="path10-6" />
    <path
       style="fill:#8a8b8a"
       inkscape:connector-curvature="0"
       d="m 23.337,152.82 c 0.204,4.83 -3.505,8.914 -8.285,9.122 -4.78,0.207 -8.82,-3.542 -9.024,-8.372 -0.206,-4.83 3.503,-8.915 8.283,-9.122 4.78,-0.206 8.823,3.542 9.028,8.373"
       id="path12-7" />
    <path
       style="fill:#4d4d4c"
       inkscape:connector-curvature="0"
       d="m 11.405,42.78 c 0.126,2.943 -2.135,5.432 -5.047,5.557 -2.912,0.126 -5.374,-2.157 -5.5,-5.1 -0.125,-2.944 2.135,-5.433 5.048,-5.558 2.912,-0.128 5.374,2.155 5.5,5.1"
       id="path14-5" />
    <path
       style="fill:#343433"
       inkscape:connector-curvature="0"
       d="m 162.945,98.957 c 0,21.092 -1.62,28.002 -5.937,33.093 -3.778,4.183 -10.075,6.182 -17.274,6.73 l 1.62,12.545 c 8.456,0 19.972,-2.91 26.99,-10 7.736,-8 10.436,-19.093 10.436,-36.186 l 0,-79.829 -15.835,0 0,73.647 M 281.16,89.32 c 0,9.09 0.18,17.092 0.72,24 l -14.035,0 -0.9,-14.363 -0.36,0 c -4.14,7.09 -13.314,16.364 -28.788,16.364 -13.675,0 -30.05,-7.635 -30.05,-38.546 l 0,-51.465 15.835,0 0,48.734 c 0,16.73 5.038,28.004 19.433,28.004 10.615,0 17.992,-7.456 20.87,-14.55 0.9,-2.36 1.44,-5.27 1.44,-8.18 l 0,-54.008 15.835,0 0,64.01 m 29.87,-35.278 c 0,-11.273 -0.36,-20.366 -0.72,-28.73 l 14.215,0 0.72,15.092 0.36,0 c 6.477,-10.728 16.734,-17.093 30.948,-17.093 21.052,0 36.885,18.004 36.885,44.735 0,31.64 -19.072,47.277 -39.584,47.277 -11.515,0 -21.59,-5.09 -26.81,-13.82 l -0.36,0 0,47.825 -15.654,0 0,-95.286 z M 326.686,77.5 c 0,2.364 0.36,4.545 0.72,6.546 2.88,11.09 12.415,18.73 23.75,18.73 16.734,0 26.45,-13.82 26.45,-34.005 0,-17.636 -9.177,-32.73 -25.91,-32.73 -10.796,0 -20.872,7.82 -23.93,19.82 -0.54,2 -1.08,4.365 -1.08,6.547 l 0,15.092 z m 94.824,-52.19 19.072,52.007 c 1.98,5.82 4.138,12.73 5.58,18.003 l 0.358,0 c 1.62,-5.274 3.42,-12.002 5.577,-18.367 l 17.273,-51.643 16.734,0 -23.75,62.736 c -11.336,30.184 -19.073,45.64 -29.868,55.097 -7.738,6.91 -15.475,9.638 -19.433,10.364 l -3.96,-13.455 c 3.96,-1.273 9.178,-3.82 13.856,-7.82 4.316,-3.455 9.715,-9.637 13.313,-17.82 0.72,-1.635 1.26,-2.91 1.26,-3.818 0,-0.91 -0.36,-2.182 -1.08,-4.182 l -32.207,-81.1 17.273,0 m 106.237,-25.276 0,25.274 22.67,0 0,12.185 -22.67,0 0,47.46 c 0,10.91 3.06,17.093 11.876,17.093 4.137,0 7.196,-0.547 9.175,-1.09 l 0.72,12 c -3.058,1.272 -7.917,2.18 -14.034,2.18 -7.378,0 -13.315,-2.36 -17.094,-6.726 -4.5,-4.728 -6.12,-12.548 -6.12,-22.913 l 0,-48.006 -13.494,0 0,-12.183 13.495,0 0,-21.09 15.478,-4.184 m 51.82,72.19 c 0.36,21.638 14.035,30.55 29.87,30.55 11.334,0 18.17,-2 24.11,-4.548 l 2.698,11.456 c -5.578,2.546 -15.113,5.455 -28.968,5.455 -26.81,0 -42.824,-17.82 -42.824,-44.37 0,-26.548 15.474,-47.46 40.844,-47.46 28.43,0 35.986,25.275 35.986,41.46 0,3.273 -0.36,5.82 -0.54,7.455 l -61.176,0 z m 46.42,-11.456 c 0.182,-10.184 -4.136,-26.004 -21.95,-26.004 -16.013,0 -23.03,14.91 -24.29,26.004 l 46.24,0 z m 38.51,-8 c 0,-10.365 -0.18,-19.276 -0.72,-27.46 l 13.854,0 0.54,17.277 0.72,0 c 3.958,-11.82 13.494,-19.276 24.11,-19.276 1.8,0 3.06,0.184 4.5,0.55 l 0,15.09 c -1.62,-0.363 -3.24,-0.545 -5.4,-0.545 -11.156,0 -19.07,8.546 -21.23,20.547 -0.36,2.183 -0.72,4.73 -0.72,7.456 l 0,46.915 -15.655,0 0,-60.554"
       id="path16-3" />
    <path
       style="fill:#e46e2e"
       inkscape:connector-curvature="0"
       d="m 144.677,221.71 7.128,0 0,-23.572 c 0,-1.215 0.162,-2.43 0.486,-3.32 1.217,-3.97 4.86,-7.29 9.56,-7.29 6.723,0 9.07,5.264 9.07,11.582 l 0,22.6 7.13,0 0,-23.41 c 0,-13.446 -8.424,-16.686 -13.85,-16.686 -6.48,0 -11.017,3.645 -12.96,7.37 l -0.163,0 -0.405,-6.48 -6.317,0 c 0.243,3.24 0.324,6.562 0.324,10.612 l 0,28.593 z m 50.787,0 0.324,-6.48 0.243,0 c 2.918,5.183 7.454,7.37 13.124,7.37 8.748,0 17.577,-6.966 17.577,-20.98 0.08,-11.906 -6.803,-20.006 -16.523,-20.006 -6.318,0 -10.854,2.835 -13.365,7.21 l -0.16,0 0,-24.624 -7.048,0 0,47.383 c 0,3.483 -0.162,7.452 -0.324,10.125 l 6.156,0 z m 1.215,-22.762 c 0,-1.134 0.24,-2.106 0.403,-2.916 1.458,-5.427 5.994,-8.748 10.854,-8.748 7.614,0 11.664,6.723 11.664,14.58 0,8.99 -4.454,15.066 -11.906,15.066 -5.184,0 -9.315,-3.402 -10.692,-8.343 -0.162,-0.81 -0.324,-1.7 -0.324,-2.592 l 0,-7.047 z m 34.18,-16.443 14.904,39.204 6.804,0 15.39,-39.206 -7.453,0 -7.614,22.032 c -1.295,3.564 -2.43,6.804 -3.32,10.044 l -0.243,0 c -0.81,-3.24 -1.864,-6.48 -3.16,-10.043 l -7.695,-22.032 -7.614,0 z m 50.95,39.204 0,-39.206 -7.13,0 0,39.204 7.13,0 z m -3.565,-54.677 c -2.592,0 -4.455,1.944 -4.455,4.455 0,2.43 1.783,4.373 4.294,4.373 2.835,0 4.617,-1.943 4.536,-4.373 0,-2.512 -1.7,-4.456 -4.374,-4.456 z m 46.9,36.37 c 0.08,-0.73 0.242,-1.864 0.242,-3.322 0,-7.21 -3.402,-18.467 -16.2,-18.467 -11.42,0 -18.387,9.315 -18.387,21.14 0,11.827 7.21,19.765 19.28,19.765 6.236,0 10.53,-1.297 13.04,-2.43 l -1.215,-5.104 c -2.673,1.134 -5.75,2.025 -10.854,2.025 -7.126,0 -13.282,-3.97 -13.444,-13.608 l 27.54,0 z m -27.46,-5.104 c 0.567,-4.94 3.726,-11.584 10.935,-11.584 8.02,0 9.964,7.047 9.883,11.583 l -20.817,0 z m 32.076,-15.796 11.827,39.204 6.48,0 6.318,-18.63 c 1.377,-4.213 2.592,-8.263 3.564,-12.96 l 0.16,0 c 0.973,4.616 2.107,8.504 3.484,12.878 l 5.994,18.71 6.48,0 12.635,-39.203 -7.047,0 -5.59,19.683 c -1.295,4.617 -2.348,8.748 -2.996,12.717 l -0.243,0 c -0.892,-3.97 -2.026,-8.1 -3.484,-12.798 l -6.075,-19.602 -5.993,0 -6.4,20.007 c -1.295,4.212 -2.59,8.424 -3.482,12.393 l -0.243,0 c -0.73,-4.05 -1.782,-8.1 -2.916,-12.474 l -5.184,-19.926 -7.29,0 z m 95.58,20.898 c 0.08,-0.73 0.244,-1.863 0.244,-3.32 0,-7.21 -3.402,-18.47 -16.2,-18.47 -11.42,0 -18.387,9.316 -18.387,21.142 0,11.826 7.21,19.764 19.278,19.764 6.237,0 10.53,-1.297 13.04,-2.43 l -1.214,-5.104 c -2.672,1.134 -5.75,2.025 -10.853,2.025 -7.128,0 -13.284,-3.97 -13.446,-13.608 l 27.54,0 z m -27.46,-5.103 c 0.57,-4.94 3.728,-11.584 10.937,-11.584 8.02,0 9.963,7.047 9.882,11.583 l -20.819,0 z m 36.533,23.41 7.047,0 0,-20.9 c 0,-1.215 0.163,-2.35 0.325,-3.32 0.972,-5.347 4.536,-9.154 9.558,-9.154 0.972,0 1.7,0.08 2.43,0.243 l 0,-6.724 c -0.648,-0.162 -1.215,-0.243 -2.025,-0.243 -4.78,0 -9.072,3.32 -10.854,8.586 l -0.324,0 -0.243,-7.696 -6.237,0 c 0.243,3.645 0.324,7.614 0.324,12.23 l 0,26.974 z"
       id="path18" />
  </g>
  <text
     xml:space="preserve"
     style="font-style:normal;font-variant:normal;font-weight:normal;font-stretch:normal;font-size:24.78100395px;line-height:125%;font-family:'DejaVu Sans';-inkscape-font-specification:'DejaVu Sans, Normal';text-align:center;letter-spacing:0px;word-spacing:0px;writing-mode:lr-tb;text-anchor:middle;fill:#8a8b8a;fill-opacity:1;stroke:none;stroke-width:1px;stroke-linecap:butt;stroke-linejoin:miter;stroke-opacity:1"
     x="527.63751"
     y="135.84279"
     id="text3497"
     sodipodi:linespacing="125%"><tspan
       sodipodi:role="line"
       id="tspan3499"
       x="527.63751"
       y="135.84279">powered by</tspan></text>
</svg>
